<svg xmlns="http://www.w3.org/2000/svg" viewBox="0 0 512 512" width="512" height="512" role="img" aria-labelledby="title desc">
  <title id="title">GreenGlitch logo</title>
  <desc id="desc">Neon green letter G with glitch bars on a dark rounded square</desc>
  <defs>
    <linearGradient id="bg" x1="0" y1="0" x2="1" y2="1">
      <stop offset="0" stop-color="#020617" />
      <stop offset="1" stop-color="#04142a" />
    </linearGradient>
    <linearGradient id="ring" x1="0" y1="0" x2="1" y2="1">
      <stop offset="0" stop-color="#34d399" />
      <stop offset="1" stop-color="#3b82f6" />
    </linearGradient>
    <linearGradient id="glitch" x1="0" y1="0" x2="1" y2="0">
      <stop offset="0" stop-color="#f43f5e" />
      <stop offset="1" stop-color="#22d3ee" />
    </linearGradient>
    <linearGradient id="leaf" x1="0" y1="0" x2="1" y2="1">
      <stop offset="0" stop-color="#34d399" />
      <stop offset="1" stop-color="#a7f3d0" />
    </linearGradient>
  </defs>
  <rect width="512" height="512" rx="128" fill="url(#bg)" />
  <rect x="32" y="32" width="448" height="448" rx="120" fill="none" stroke="#0f172a" stroke-opacity="0.35" stroke-width="4" />
  <circle cx="256" cy="256" r="180" fill="none" stroke="url(#ring)" stroke-width="26" opacity="0.85" />
  <path d="M348 178h-82c-48.5 0-88 39.5-88 88s39.5 88 88 88c31.6 0 58.5-15.6 73.8-39.8H266" fill="none" stroke="#020617" stroke-width="38" stroke-linecap="round" stroke-linejoin="round" opacity="0.45" />
  <path d="M348 178h-82c-48.5 0-88 39.5-88 88s39.5 88 88 88c31.6 0 58.5-15.6 73.8-39.8H266" fill="none" stroke="url(#ring)" stroke-width="26" stroke-linecap="round" stroke-linejoin="round" />
  <path d="M330 120c46 28 63 70 44 122-50-4-88-26-110-62 10-30 30-52 66-60z" fill="url(#leaf)" opacity="0.8" />
  <rect x="120" y="150" width="92" height="18" rx="9" fill="url(#glitch)" opacity="0.8" />
  <rect x="308" y="324" width="84" height="16" rx="8" fill="url(#glitch)" opacity="0.7" />
  <rect x="156" y="330" width="56" height="14" rx="7" fill="#34d399" opacity="0.5" />
  <rect x="320" y="206" width="72" height="14" rx="7" fill="#22d3ee" opacity="0.6" />
  <circle cx="338" cy="122" r="38" fill="#0f172a" opacity="0.08" />
  <circle cx="338" cy="122" r="22" fill="#34d399" opacity="0.25" />
</svg>
