<svg xmlns="http://www.w3.org/2000/svg" viewBox="0 0 512 512" width="512" height="512" role="img" aria-label="GreenGlitch icon">
  <defs>
    <linearGradient id="bg" x1="0" y1="0" x2="1" y2="1">
      <stop offset="0" stop-color="#020617" />
      <stop offset="1" stop-color="#04142a" />
    </linearGradient>
    <linearGradient id="ring" x1="0" y1="0" x2="1" y2="1">
      <stop offset="0" stop-color="#34d399" />
      <stop offset="1" stop-color="#3b82f6" />
    </linearGradient>
    <linearGradient id="glitch" x1="0" y1="0" x2="1" y2="0">
      <stop offset="0" stop-color="#f43f5e" />
      <stop offset="1" stop-color="#22d3ee" />
    </linearGradient>
  </defs>
  <rect width="512" height="512" rx="128" fill="url(#bg)" />
  <circle cx="256" cy="256" r="182" fill="none" stroke="rgba(15,23,42,0.6)" stroke-width="30" />
  <circle cx="256" cy="256" r="170" fill="none" stroke="url(#ring)" stroke-width="26" />
  <path d="M348 178h-82c-48.5 0-88 39.5-88 88s39.5 88 88 88c31.6 0 58.5-15.6 73.8-39.8H268" fill="none" stroke="#04111f" stroke-width="38" stroke-linecap="round" stroke-linejoin="round" opacity="0.45" />
  <path d="M348 178h-82c-48.5 0-88 39.5-88 88s39.5 88 88 88c31.6 0 58.5-15.6 73.8-39.8H268" fill="none" stroke="url(#ring)" stroke-width="26" stroke-linecap="round" stroke-linejoin="round" />
  <rect x="132" y="150" width="96" height="18" rx="9" fill="url(#glitch)" opacity="0.8" />
  <rect x="312" y="322" width="88" height="16" rx="8" fill="url(#glitch)" opacity="0.7" />
  <rect x="172" y="330" width="60" height="14" rx="7" fill="#34d399" opacity="0.5" />
</svg>
